<svg xmlns="http://www.w3.org/2000/svg" width="512" height="512" viewBox="0 0 512 512"><path d="M256 90c91.742 0 166 74.244 166 166 0 91.74-74.245 166-166 166-91.743 0-166-74.245-166-166 0-91.74 74.244-166 166-166m0-40C142.23 50 50 142.23 50 256s92.23 206 206 206 206-92.23 206-206S369.77 50 256 50zM322.277 301.722c-25.836-5.962-49.886-11.18-38.24-33.136C319.492 201.746 293.435 166 256 166c-38.177 0-63.59 37.118-28.04 102.585 11.994 22.09-12.957 27.303-38.24 33.136-25.825 5.957-23.838 19.572-23.838 44.28h180.235c0-24.707 1.986-38.322-23.84-44.278z"/></svg>