<svg xmlns="http://www.w3.org/2000/svg" width="512" height="512" viewBox="0 0 512 512"><path d="M256 90c91.742 0 166 74.244 166 166 0 91.74-74.245 166-166 166-91.743 0-166-74.245-166-166 0-91.74 74.244-166 166-166m0-40C142.23 50 50 142.23 50 256s92.23 206 206 206 206-92.23 206-206S369.77 50 256 50zm51.387 130.104c-12.17-7.575-23.647-10.56-35.128-18.138-7.12-4.82-16.99-16.3-25.255-26.173-1.608 15.84-6.43 22.27-11.94 26.862-11.708 9.184-19.055 11.94-29.156 17.448-8.496 4.363-54.644 31.914-54.644 91.148 0 59.235 49.82 102.857 105.153 102.857 55.33 0 103.314-40.18 103.314-101.02 0-60.84-45-88.39-52.347-92.983zm-18.65 142.55c3.675 0 7.578.23 10.333 2.065 2.754 1.837 4.363 5.97 5.28 8.265.918 2.296 0 3.675-1.836 4.592-1.607.92-1.838.46-3.444-2.525-1.607-2.984-2.984-5.97-11.02-5.97-8.035 0-10.56 2.756-14.464 5.97-3.903 3.215-5.28 4.362-6.658 2.525-1.38-1.836-.92-3.673 1.606-5.97s6.66-5.968 10.562-7.575 5.968-1.378 9.642-1.378zm-38.11 26.174c4.59 3.673 11.478 6.658 26.172 6.658s25.023-4.133 29.615-7.577c2.067-1.608 2.985-.23 3.216.687.23.92.69 2.297-.92 3.903-1.145 1.148-11.707 8.495-24.104 9.644-12.398 1.147-29.158 1.837-39.26-7.348-1.608-1.606-1.15-3.902 0-4.82 1.147-.92 2.065-1.607 3.443-1.607s1.148 0 1.836.458zm-54.184-41.785c.23-17.91 16.99-34.67 38.112-34.898 26.86-.23 45.46 26.633 59.004 26.403 11.48-.23 33.52-22.73 44.31-22.73 11.48 0 14.694 11.94 14.694 19.056 0 7.118-2.296 19.976-7.807 28.01-5.51 8.037-8.954 11.022-15.384 10.563-8.265-.688-24.795-26.402-35.356-26.86-13.316-.46-42.244 27.78-64.974 27.78-13.775 0-17.908-2.067-22.5-5.053-6.886-4.824-10.33-12.17-10.1-22.27z"/></svg>