<svg xmlns="http://www.w3.org/2000/svg" width="512" height="512" viewBox="0 0 512 512"><path d="M256.417 90c44.34 0 86.026 17.267 117.38 48.62 31.354 31.354 48.62 73.04 48.62 117.38 0 44.34-17.267 86.026-48.62 117.38-31.354 31.353-73.04 48.62-117.38 48.62s-86.026-17.268-117.38-48.62c-31.354-31.354-48.62-73.04-48.62-117.38 0-44.34 17.267-86.026 48.62-117.38C170.39 107.267 212.077 90 256.417 90m0-40c-113.77 0-206 92.23-206 206s92.23 206 206 206 206-92.23 206-206-92.23-206-206-206zM228.11 218.133h-23.516v38.386h23.517v112.763h45.22V256.04h31.552l3.358-37.907h-34.91V196.54c0-8.938 1.802-12.477 10.44-12.477h24.47v-39.347h-31.31c-33.648 0-48.82 14.814-48.82 43.186v30.23z"/></svg>