<svg xmlns="http://www.w3.org/2000/svg" width="512" height="512" viewBox="0 0 512 512"><path d="M256 90c91.742 0 166 74.244 166 166 0 91.74-74.245 166-166 166-91.743 0-166-74.245-166-166 0-91.74 74.244-166 166-166zm0-40C142.23 50 50 142.23 50 256s92.23 206 206 206 206-92.23 206-206S369.77 50 256 50zm0 92.08c-64.505 0-116.802 52.3-116.802 116.803 0 51.604 33.467 95.395 79.883 110.832 5.837 1.084 7.718-2.527 7.718-5.618V342.35c-32.486 7.07-39.258-13.773-39.258-13.773-5.303-13.507-12.965-17.102-12.965-17.102-10.598-7.242.8-7.1.8-7.1 11.73.828 17.91 12.043 17.91 12.043 10.415 17.852 27.315 12.69 33.99 9.705 1.044-7.548 4.067-12.7 7.413-15.617-25.95-2.945-53.21-12.965-53.21-57.726 0-12.757 4.56-23.174 12.034-31.35-1.22-2.946-5.21-14.828 1.12-30.91 0 0 9.812-3.137 32.128 11.977 9.324-2.586 19.314-3.888 29.24-3.936 9.924.05 19.932 1.35 29.256 3.937 22.3-15.114 32.09-11.977 32.09-11.977 6.36 16.083 2.357 27.964 1.15 30.91 7.49 8.176 12.025 18.593 12.025 31.35 0 44.865-27.327 54.742-53.335 57.63 4.184 3.622 8.014 10.74 8.014 21.635v32.052c0 3.11 1.872 6.75 7.794 5.608 46.387-15.465 79.807-59.23 79.807-110.822.002-64.504-52.297-116.802-116.8-116.802z"/></svg>