<svg xmlns="http://www.w3.org/2000/svg" width="512" height="512" viewBox="0 0 512 512"><path d="M256.417 91c44.34 0 86.026 17.267 117.38 48.62 31.354 31.354 48.62 73.04 48.62 117.38 0 44.34-17.267 86.026-48.62 117.38-31.354 31.353-73.04 48.62-117.38 48.62s-86.026-17.268-117.38-48.62c-31.354-31.354-48.62-73.04-48.62-117.38 0-44.34 17.267-86.026 48.62-117.38C170.39 108.267 212.077 91 256.417 91m0-40c-113.77 0-206 92.23-206 206s92.23 206 206 206 206-92.23 206-206-92.23-206-206-206zm5.71 230.02c-19.274-14.056-23.984-21.997-5.586-36.222 10.367-8.016 17.633-18.7 17.633-31.893 0-14.372-5.878-27.41-16.928-33.743h15.663l13.335-13.996H226.57c-37.25 0-55.516 22.328-55.516 46.888 0 25.1 17.22 44.868 50.843 44.868-5.213 10.524-3.12 20.245 5.41 27.195-57.426 0-69.715 25.198-69.715 44.61 0 25.15 28.91 40.103 63.578 40.103 47.4 0 66.243-25.12 66.243-45.758 0-16.82-6.28-27.81-25.285-42.05zm-68.632-69.337c-2.778-21.125 8.008-37.288 24.09-36.81 16.077.484 29.836 17.812 32.61 38.93 2.774 21.124-6.478 34.717-22.555 34.238-16.084-.483-31.37-15.237-34.145-36.357zm27.846 145.97c-23.962 0-41.266-15.17-41.266-33.392 0-17.854 20.306-33.26 44.267-32.996 26.587 0 42.434 16.558 42.434 33.93 0 18.222-14.8 32.458-45.433 32.458zm143.9-162.203v13.765h-27.53v27.53h-13.764v-27.53h-27.53V195.45h27.53v-27.53h13.764v27.53h27.53z"/></svg>