<svg xmlns="http://www.w3.org/2000/svg" width="512" height="512" viewBox="0 0 512 512"><path d="M256 90c44.34 0 86.026 17.268 117.38 48.62C404.732 169.974 422 211.66 422 256s-17.268 86.026-48.62 117.38C342.026 404.732 300.34 422 256 422c-44.34 0-86.026-17.268-117.38-48.62C107.267 342.026 90 300.34 90 256s17.267-86.026 48.62-117.38C169.974 107.268 211.66 90 256 90zm0-40C142.23 50 50 142.23 50 256s92.23 206 206 206 206-92.23 206-206S369.77 50 256 50zm106.137 220.063l-51.66 29.826 16.404 9.47c-16.002 21.812-36.937 35.5-59.467 38.974V240.5c0-31.236 27.8-34.235 27.8-64.012 0-21.622-17.592-39.21-39.213-39.21s-39.21 17.588-39.21 39.21c0 30.026 27.798 32.51 27.798 64.013v107.834c-22.53-3.474-43.465-17.162-59.468-38.974l16.404-9.47-51.66-29.827v59.652l15.395-8.89c23.114 32.665 55.75 51.216 90.74 51.216s67.625-18.55 90.74-51.215l15.396 8.89v-59.652zm-122.523-93.575c0-9.036 7.35-16.386 16.386-16.386 9.035 0 16.387 7.35 16.387 16.386 0 9.035-7.352 16.387-16.387 16.387-9.036 0-16.386-7.352-16.386-16.387z"/></svg>