<svg xmlns="http://www.w3.org/2000/svg" width="512" height="512" viewBox="0 0 512 512"><path d="M256.417 90c44.34 0 86.026 17.267 117.38 48.62 31.354 31.354 48.62 73.04 48.62 117.38 0 44.34-17.267 86.026-48.62 117.38-31.354 31.353-73.04 48.62-117.38 48.62s-86.026-17.268-117.38-48.62c-31.354-31.354-48.62-73.04-48.62-117.38 0-44.34 17.267-86.026 48.62-117.38C170.39 107.267 212.077 90 256.417 90m0-40c-113.77 0-206 92.23-206 206s92.23 206 206 206 206-92.23 206-206-92.23-206-206-206zm-42.64 125.765c0 12.657-10.18 22.918-22.733 22.918-12.556 0-22.734-10.26-22.734-22.918s10.18-22.918 22.734-22.918c12.555 0 22.733 10.26 22.733 22.918zm-3.328 39.184h-38.444v124.204h38.443V214.95zm61.454 0H235.03v124.204h36.874v-65.198c0-17.467 8.04-27.863 23.428-27.863 14.14 0 20.932 9.982 20.932 27.863v65.198h38.26v-78.646c0-33.268-18.854-49.35-45.19-49.35l-37.43 20.518V214.95z"/></svg>