<svg xmlns="http://www.w3.org/2000/svg" width="512" height="512" viewBox="0 0 512 512"><path d="M256 90c44.34 0 86.026 17.267 117.38 48.62C404.733 169.974 422 211.66 422 256c0 44.34-17.267 86.026-48.62 117.38C342.026 404.732 300.34 422 256 422s-86.026-17.268-117.38-48.62C107.267 342.026 90 300.34 90 256c0-44.34 17.267-86.026 48.62-117.38C169.974 107.267 211.66 90 256 90m0-40C142.23 50 50 142.23 50 256s92.23 206 206 206 206-92.23 206-206S369.77 50 256 50zm-30.617 264.94c0 13.927-11.287 25.212-25.21 25.212s-25.212-11.285-25.212-25.21 11.288-25.21 25.212-25.21 25.21 11.286 25.21 25.21zm-50.422-97.594v37.35c46.91.48 84.978 38.546 85.46 85.456h37.348c-.484-67.612-55.195-122.323-122.807-122.806zm0-26.147c39.656.172 76.913 15.688 104.973 43.75 28.115 28.114 43.64 65.46 43.753 105.203h37.352c-.235-102.713-83.392-185.947-186.076-186.306V191.2z"/></svg>