<svg xmlns="http://www.w3.org/2000/svg" width="512" height="512" viewBox="0 0 512 512"><path d="M256 90c91.742 0 166 74.244 166 166 0 91.74-74.245 166-166 166-91.743 0-166-74.245-166-166 0-91.74 74.244-166 166-166m0-40C142.23 50 50 142.23 50 256s92.23 206 206 206 206-92.23 206-206S369.77 50 256 50zm112.797 151.997c-7.712 3.42-16 5.732-24.697 6.77 8.876-5.32 15.696-13.747 18.906-23.79-8.31 4.93-17.512 8.507-27.307 10.436-7.844-8.357-19.02-13.58-31.388-13.58-27.756 0-48.16 25.903-41.89 52.8-35.735-1.792-67.422-18.912-88.63-44.927-11.264 19.323-5.843 44.61 13.31 57.41-7.05-.224-13.683-2.16-19.48-5.38-.465 19.922 13.812 38.552 34.49 42.708-6.052 1.646-12.68 2.023-19.42.735 5.473 17.083 21.355 29.515 40.17 29.86-18.078 14.17-40.848 20.496-63.66 17.808 19.028 12.2 41.632 19.32 65.915 19.32 79.834 0 124.94-67.433 122.222-127.91 8.4-6.064 15.69-13.638 21.457-22.26z"/></svg>