<svg style="position: absolute; width: 0; height: 0; overflow: hidden;" aria-hidden="true" version="1.1" xmlns="http://www.w3.org/2000/svg" xmlns:xlink="http://www.w3.org/1999/xlink">
    <defs>
        <symbol id="close" viewBox="0 0 32 32" fill="currentColor" xmlns:xlink="http://www.w3.org/1999/xlink">
            <polygon points="17.4141 16 24 9.4141 22.5859 8 16 14.5859 9.4143 8 8 9.4141 14.5859 16 8 22.5859 9.4143 24 16 17.4141 22.5859 24 24 22.5859 17.4141 16" />
        </symbol>
        <symbol id="menu" viewBox="0 0 32 32" fill="currentColor" xmlns:xlink="http://www.w3.org/1999/xlink">
            <circle cx="16" cy="8" r="2" />
            <circle cx="16" cy="16" r="2" />
            <circle cx="16" cy="24" r="2" />
        </symbol>
        <symbol id="instagram" viewBox="0 0 24 24" fill="currentColor" xmlns:xlink="http://www.w3.org/1999/xlink">
            <path d="M7.0301 0.084c-1.2768 0.0602-2.1487 0.264-2.911 0.5634-0.7888 0.3075-1.4575 0.72-2.1228 1.3877-0.6652 0.6677-1.075 1.3368-1.3802 2.127-0.2954 0.7638-0.4956 1.6365-0.552 2.914s-0.0689 1.6882-0.0626 4.947c62e-4 3.2586 0.0206 3.6671 0.0825 4.9473 0.061 1.2765 0.264 2.1482 0.5635 2.9107 0.308 0.7889 0.72 1.4573 1.388 2.1228 0.6679 0.6655 1.3365 1.0743 2.1285 1.38 0.7632 0.295 1.6361 0.4961 2.9134 0.552 1.2773 0.056 1.6884 0.069 4.9462 0.0627 3.2578-62e-4 3.668-0.0207 4.9478-0.0814 1.28-0.0607 2.147-0.2652 2.9098-0.5633 0.7889-0.3086 1.4578-0.72 2.1228-1.3881 0.665-0.6682 1.0745-1.3378 1.3795-2.1284 0.2957-0.7632 0.4966-1.636 0.552-2.9124 0.056-1.2809 0.0692-1.6898 0.063-4.948-63e-4-3.2583-0.021-3.6668-0.0817-4.9465s-0.264-2.1487-0.5633-2.9117c-0.3084-0.7889-0.72-1.4568-1.3876-2.1228-0.6677-0.666-1.3379-1.0752-2.1281-1.3795-0.7638-0.2955-1.6361-0.4968-2.9134-0.552S15.236-5e-3 11.977 14e-4C8.718 76e-4 8.31 0.0215 7.0301 0.0839M7.1703 21.7771c-1.17-0.0509-1.8053-0.2453-2.2287-0.408-0.5606-0.216-0.96-0.4771-1.3819-0.895-0.422-0.4178-0.6811-0.8186-0.9-1.378-0.1644-0.4234-0.3624-1.058-0.4171-2.228-0.0595-1.2645-0.072-1.6442-0.079-4.848-7e-3-3.2037 53e-4-3.583 0.0607-4.848 0.05-1.169 0.2456-1.805 0.408-2.2282 0.216-0.5613 0.4762-0.96 0.895-1.3816 0.4188-0.4217 0.8184-0.6814 1.3783-0.9003 0.423-0.1651 1.0575-0.3614 2.227-0.4171 1.2655-0.06 1.6447-0.072 4.848-0.079s3.5835 5e-3 4.8495 0.0608c1.169 0.0508 1.8053 0.2445 2.228 0.408 0.5608 0.216 0.96 0.4754 1.3816 0.895 0.4217 0.4194 0.6816 0.8176 0.9005 1.3787 0.1653 0.4217 0.3617 1.056 0.4169 2.2263 0.0602 1.2655 0.0739 1.645 0.0796 4.848 58e-4 3.203-55e-4 3.5834-0.061 4.848-0.051 1.17-0.245 1.8055-0.408 2.2294-0.216 0.5604-0.4763 0.96-0.8954 1.3814-0.419 0.4215-0.8181 0.6811-1.3783 0.9-0.4224 0.1649-1.0577 0.3617-2.2262 0.4174-1.2656 0.0595-1.6448 0.072-4.8493 0.079s-3.5825-6e-3-4.848-0.0608M16.953 5.5864A1.44 1.44 0 1 0 18.39 4.144a1.44 1.44 0 0 0-1.437 1.4424M5.8385 12.012c67e-4 3.4032 2.7706 6.1557 6.173 6.1493 3.4026-65e-4 6.157-2.7701 6.1506-6.1733-65e-4-3.4032-2.771-6.1565-6.174-6.1498s-6.156 2.771-6.1496 6.1738M8 12.0077a4 4 0 1 1 4.008 3.9921A3.9996 3.9996 0 0 1 8 12.0077" />
        </symbol>
        <symbol id="sun" viewBox="0 0 32 32" fill="currentColor" xmlns:xlink="http://www.w3.org/1999/xlink">
            <path transform="translate(0 49e-4)" d="M16 12a4 4 0 1 1-4 4 4.0045 4.0045 0 0 1 4-4M16 10a6 6 0 1 0 6 6 6 6 0 0 0-6-6z" />
            <rect transform="rotate(-45 7.859428 7.855918)" width="1.9998" height="4.958" x="6.8536" y="5.3745" />
            <rect width="5" height="2" x="2" y="15.0049" />
            <rect transform="rotate(-45 7.859412 24.148925)" width="4.958" height="1.9998" x="5.3745" y="23.146601" />
            <rect width="2" height="5" x="15" y="25.0049" />
            <rect transform="rotate(-45 24.152419 24.148941)" width="1.9998" height="4.958" x="23.146601" y="21.6675" />
            <rect width="5" height="2" x="25" y="15.0049" />
            <rect transform="rotate(-45 24.152434 7.855934)" width="4.958" height="1.9998" x="21.6675" y="6.8536" />
            <rect width="2" height="5" x="15" y="2.0049" />
        </symbol>
        <symbol id="moon" viewBox="0 0 32 32" fill="currentColor" xmlns:xlink="http://www.w3.org/1999/xlink">
            <path d="M13.5025 5.4136A15.0755 15.0755 0 0 0 25.096 23.6082a11.1134 11.1134 0 0 1-7.9749 3.3893c-0.1385 0-0.2782 51e-4-0.4178 0a11.0944 11.0944 0 0 1-3.2008-21.5839M14.98 3a1.0024 1.0024 0 0 0-0.1746 0.0156 13.0959 13.0959 0 0 0 1.8246 25.9817c0.1641 6e-3 0.3282 0 0.4909 0a13.0724 13.0724 0 0 0 10.702-5.5556 1.0094 1.0094 0 0 0-0.7833-1.5644A13.08 13.08 0 0 1 15.8892 4.38 1.0149 1.0149 0 0 0 14.98 3z" />
        </symbol>
        <symbol id="facebook" viewBox="0 0 1024 1024" fill="currentColor">
            <path transform="matrix(1, 0, 0, -1, 0, 960)" d="M810.667 960H213.334C95.531 960 1e-3 864.469 1e-3 746.667V149.334c0-117.803 95.531-213.333 213.333-213.333h597.333C928.512-63.999 1024 31.532 1024 149.334v597.333C1024 864.47 928.512 960 810.667 960zM682.667 661.333h-82.091c-26.24 0-45.909-10.752-45.909-37.931v-47.403h128l-10.155-128H554.667V106.666h-128v341.333h-85.333v128h85.333v82.048c0 86.272 45.397 131.285 147.669 131.285h108.331z" />
        </symbol>
        <symbol id="drupal" viewBox="0 0 878 1024" fill="currentColor">
            <path transform="matrix(1, 0, 0, -1, 0, 960)" d="M666.857 44.571Q664 55.428 653.143 47.428 636 34.857 603.429 25.142t-74.857-9.714q-73.714 0-110.286 28-2.857 2.286-7.429 2.286-6.286 0-14.857-6.857-4-3.429-4.286-9.143T396 18.285Q415.429-1e-3 446-8.001t58.571-7.143 56.571 2.571q23.429 2.286 48.286 11.714t37.143 17.143 16.286 11.714q6.857 6.857 4 16.573zM644.571 110.286q-10.857 26.857-22.286 34.857-13.143 8.571-43.429 8.571-26.857 0-40.571-5.714-16.571-6.857-44.571-32-14.857-13.714-6.857-25.143 5.143-4.571 10-2.571t18 13.429q1.714 1.143 6 4.857t6 4.857 5.714 4 6.571 4 7.143 2.857 8.571 2.571 9.429 1.429 11.714 0.571q15.429 0 25.429-4.286t13.143-8.286 7.714-12.571q5.714-9.714 7.143-11.429t7.143 0.571q13.143 6.857 8 19.43zM847.429 270.857q0 12.571-2.857 25.429T835.143 322t-19.429 20.857-30 8q-18.857 0-55.429-23.714t-73.714-47.714-57.714-24q-15.429-0.571-36.286 10.857t-43.429 28-47.714 33.143-57.143 28-63.429 10.857q-65.714-0.571-112.571-44.857t-48-102q-1.143-64 42.286-93.714 16.571-11.429 35.714-16.286t59.143-4.857q32.571 0 75.429 18.571t76.571 40.571T547.999 204t53.143 17.714q14.857-0.571 37.143-18t40.857-38.286 38.857-38.571 31.714-18.286q20-1.714 33.429 8t31.714 36q16 23.429 24.286 57.714t8.287 60.572zM877.714 362.286q0-93.714-35.429-174T747.428 53.429 608.857-32t-166-30.857T275.428-30 133.999 59.714t-97.429 138T-1e-3 370.285q0 50.857 11.143 98.571t28 83.143 40.286 67.714 44.857 53.714 44.857 39.714 36.857 26.571 24.286 14q8 4.571 29.143 15.143t31.143 16.286T318 802.284t34.571 25.143q20.571 16 33.143 41.429t17.143 71.714q73.714-88.571 106.286-110.286 25.143-16.571 74.286-38.857t73.714-37.714q12-7.429 22.286-14.286T714 712.856t43.429-40.286 42.857-54.286 39.429-69.714 26.857-84.857 11.142-101.427z" />
        </symbol>
        <symbol id="aboutme" viewBox="0 0 1024 1024" fill="currentColor">
            <path transform="matrix(1, 0, 0, -1, 0, 960)" d="M888.405 187.904c-146.731 33.877-283.307 63.573-217.173 188.501C872.619 756.65 724.608 960 512 960c-216.832 0-361.131-211.157-159.232-583.595 68.139-125.653-73.6-155.349-217.173-188.501C4.48 157.611-0.426 92.501 0-21.333L0.171-64h1023.573l0.171 41.344c0.512 114.688-3.925 180.139-135.51 210.56z" />
        </symbol>
        <symbol id="twitter" viewBox="0 0 1024 1024" fill="currentColor">
            <path transform="matrix(1, 0, 0, -1, 0, 960)" d="M1024 765.568c-37.675-16.725-78.165-27.989-120.661-33.067 43.392 25.984 76.715 67.157 92.373 116.224-40.576-24.064-85.547-41.557-133.419-50.987-38.272 40.832-92.928 66.347-153.344 66.347-135.637 0-235.307-126.549-204.672-257.92-174.549 8.747-329.344 92.373-432.981 219.477-55.04-94.421-28.544-217.941 64.981-280.491-34.389 1.109-66.816 10.539-95.104 26.283-2.304-97.323 67.456-188.373 168.491-208.64-29.568-8.021-61.952-9.899-94.891-3.584 26.709-83.456 104.277-144.171 196.267-145.877C222.72 144.085 111.445 113.152 0 126.293 92.971 66.688 203.435 31.914 322.048 31.914c390.059 0 610.432 329.429 597.12 624.896 41.045 29.653 76.672 66.645 104.832 108.758z" />
        </symbol>
        <symbol id="rss-feed" viewBox="0 0 1024 1024" fill="currentColor">
            <path transform="matrix(1, 0, 0, -1, 0, 960)" d="M277.461 74.581C277.461-1.963 215.338-64 138.752-64 62.123-64 0-1.963 0 74.581s62.123 138.581 138.752 138.581c76.587-0.043 138.709-62.037 138.709-138.581zM0 610.987V405.718c258.133-2.645 467.627-211.883 470.272-469.717h205.525C673.152 307.628 372.096 608.342 0 610.987zM0 754.688C451.413 752.725 817.152 388.011 818.475-64H1024C1022.72 500.523 565.12 958.037 0 960z" />
        </symbol>
        <symbol id="linkedin" viewBox="0 0 1024 1024" fill="currentColor">
            <path transform="matrix(1, 0, 0, -1, 0, 960)" d="M212.48 810.667C212.48 751.744 165.12 704 106.667 704S0.854 751.744 0.854 810.667c0 58.88 47.36 106.667 105.813 106.667S212.48 869.547 212.48 810.667zM213.333 618.667H0V-64h213.333zM553.899 618.667H341.931V-64h212.011v358.357c0 199.253 257.237 215.552 257.237 0V-64H1024v432.256c0 336.213-380.672 323.968-470.101 158.464z" />
        </symbol>
        <symbol id="github" viewBox="0 0 1024 1024" fill="currentColor">
            <path transform="matrix(1, 0, 0, -1, 0, 960)" d="M512 960C229.291 960 0 730.752 0 448 0 221.781 146.688 29.867 350.165-37.845 375.722-42.581 384-26.709 384-13.226v95.317c-142.421-30.976-172.075 60.416-172.075 60.416-23.296 59.179-56.875 74.923-56.875 74.923-46.464 31.787 3.541 31.104 3.541 31.104 51.413-3.584 78.464-52.779 78.464-52.779 45.653-78.251 119.765-55.637 148.992-42.539 4.565 33.067 17.835 55.68 32.512 68.437C304.852 234.666 185.3 278.57 185.3 474.709c0 55.936 20.011 101.589 52.736 137.429-5.291 12.928-22.827 65.024 4.992 135.509 0 0 43.008 13.739 140.843-52.48 40.832 11.349 84.608 17.024 128.128 17.237 43.52-0.213 87.339-5.888 128.256-17.237 97.749 66.219 140.672 52.48 140.672 52.48 27.861-70.528 10.325-122.624 5.035-135.509 32.853-35.84 52.693-81.536 52.693-137.429 0-196.651-119.765-239.957-233.771-252.629 18.347-15.872 35.115-47.019 35.115-94.805V-13.226c0-13.611 8.192-29.611 34.176-24.576 203.307 67.797 349.824 259.669 349.824 485.803 0 282.752-229.248 512-511.999 511.999z" />
        </symbol>
        <symbol id="goodreads" viewBox="0 0 1024 1024" fill="currentColor">
            <path transform="matrix(1, 0, 0, -1, 0, 960)" d="M981.333 746.667V154.326l-42.667-4.992v682.667c-166.187-5.077-320.213-32.512-426.752-98.816-106.496 66.304-260.352 93.739-426.581 98.816V149.334l-42.667 4.992v592.341H-1e-3v-640h386.432c63.104 0 70.016-42.667 125.483-42.667 55.637 0 62.336 42.667 125.525 42.667h386.56v640zM469.333 164.48c-83.029 32.939-176.512 54.144-298.667 63.317v514.176c100.352-8.405 213.163-28.8 298.667-82.005zM853.333 227.797c-122.155-9.173-215.637-30.379-298.667-63.317v495.488c85.504 53.205 198.315 73.6 298.667 82.005z" />
        </symbol>
        <symbol id="space" viewBox="0 0 512 1024" />
    </defs>
</svg>
